<svg xmlns="http://www.w3.org/2000/svg" viewBox="0 0 64 64" role="img" aria-label="Carbu-Malin">
  <rect x="4" y="4" width="56" height="56" rx="16" fill="#0f766e"/>
  <path d="M14 37c4-13 16-20 31-17 13 3 20 13 18 23-3 10-14 15-29 14-14-1-24-9-20-20z" fill="#63df58" stroke="#152421" stroke-width="3"/>
  <path d="M27 21c-9-4-18 0-22 6 8 2 16 1 23-3z" fill="#63df58" stroke="#152421" stroke-width="3" stroke-linejoin="round"/>
  <circle cx="31" cy="21" r="5" fill="#f5fff1" stroke="#152421" stroke-width="2"/>
  <circle cx="44" cy="22" r="6" fill="#f5fff1" stroke="#152421" stroke-width="2"/>
  <circle cx="32" cy="22" r="2" fill="#152421"/>
  <circle cx="45" cy="23" r="2" fill="#152421"/>
  <path d="M28 35c8 6 20 5 27-2" fill="none" stroke="#152421" stroke-width="3" stroke-linecap="round"/>
  <circle cx="49" cy="46" r="6" fill="#f5b82e" stroke="#152421" stroke-width="2"/>
  <path d="M46 46h6m-3-3v6" stroke="#152421" stroke-width="2" stroke-linecap="round"/>
</svg>
