<svg xmlns="http://www.w3.org/2000/svg" viewBox="0 0 96 96" role="img" aria-label="Carbu-Malin">
  <rect x="6" y="6" width="84" height="84" rx="22" fill="#0f766e"/>
  <rect x="52" y="17" width="19" height="43" rx="5" fill="#eafff6" stroke="#152421" stroke-width="3"/>
  <path d="M71 39c10 4 12 12 6 23" fill="none" stroke="#152421" stroke-width="4" stroke-linecap="round"/>
  <path d="M21 55c5-17 21-26 40-22 17 4 27 17 24 31-3 13-18 20-37 18-19-2-32-12-27-27z" fill="#63df58" stroke="#152421" stroke-width="4"/>
  <path d="M39 34c-13-5-25 0-31 8 12 3 23 1 32-4z" fill="#63df58" stroke="#152421" stroke-width="4" stroke-linejoin="round"/>
  <circle cx="43" cy="34" r="7" fill="#f5fff1" stroke="#152421" stroke-width="3"/>
  <circle cx="61" cy="35" r="8" fill="#f5fff1" stroke="#152421" stroke-width="3"/>
  <circle cx="45" cy="36" r="3" fill="#152421"/>
  <circle cx="63" cy="37" r="3" fill="#152421"/>
  <path d="M37 52c11 8 28 7 37-3" fill="none" stroke="#152421" stroke-width="4" stroke-linecap="round"/>
  <circle cx="72" cy="63" r="8" fill="#f5b82e" stroke="#152421" stroke-width="3"/>
  <path d="M68 63h8m-4-4v8" stroke="#152421" stroke-width="2.4" stroke-linecap="round"/>
</svg>
